<?xml version="1.0" standalone="no"?>
<!DOCTYPE svg PUBLIC "-//W3C//DTD SVG 20010904//EN"
 "http://www.w3.org/TR/2001/REC-SVG-20010904/DTD/svg10.dtd">
<svg version="1.0" xmlns="http://www.w3.org/2000/svg"
 width="100.000000pt" height="100.000000pt" viewBox="0 0 100.000000 100.000000"
 preserveAspectRatio="xMidYMid meet">

<g transform="translate(0.000000,100.000000) scale(0.100000,-0.100000)"
fill="#000000" stroke="none">
<path d="M29 969 l-29 -31 0 -429 0 -429 34 -38 34 -37 414 -3 c227 -1 423 0
435 3 12 3 35 17 52 31 l31 26 0 444 0 445 -25 24 -24 25 -447 0 -446 0 -29
-31z m611 -183 c67 -35 118 -85 149 -148 27 -52 31 -72 31 -137 0 -91 -27
-158 -87 -218 -44 -44 -130 -90 -143 -77 -5 5 -10 42 -12 82 l-3 74 40 14 c75
25 110 104 81 185 -9 26 -16 61 -16 78 0 38 -19 48 -61 31 -37 -16 -198 -16
-227 -1 -11 6 -30 11 -41 11 -18 0 -21 -6 -21 -40 0 -21 -7 -55 -16 -74 -21
-43 -12 -116 19 -152 12 -13 40 -31 62 -39 30 -10 39 -18 37 -32 -9 -44 -51
-43 -99 2 -20 19 -43 35 -50 35 -18 0 -16 -5 10 -33 12 -14 29 -35 37 -47 10
-14 31 -25 55 -29 42 -7 56 -30 36 -60 -8 -12 -18 -10 -64 13 -105 51 -169
156 -169 275 0 136 79 249 209 297 53 20 196 14 243 -10z"/>
</g>
</svg>
